<!DOCTYPE svg PUBLIC "-//W3C//DTD SVG 20010904//EN" "http://www.w3.org/TR/2001/REC-SVG-20010904/DTD/svg10.dtd">
<svg version="1.0" xmlns="http://www.w3.org/2000/svg" width="1469px" height="1470px" viewBox="0 0 14690 14700" preserveAspectRatio="xMidYMid meet">
<g id="layer101" fill="#a150e6" stroke="none">
 <path d="M7244 14690 c-83 -12 -197 -57 -285 -115 -57 -37 -267 -241 -909 -881 l-835 -833 -131 -60 c-72 -32 -254 -121 -405 -197 -265 -133 -277 -140 -352 -214 l-79 -78 -83 -10 c-46 -6 -117 -22 -158 -36 -87 -29 -656 -302 -737 -354 -128 -81 -222 -188 -270 -307 l-22 -55 -67 6 c-144 14 -398 -36 -607 -118 -60 -23 -221 -98 -359 -166 -137 -69 -378 -186 -535 -262 -157 -75 -312 -154 -345 -174 -132 -85 -234 -208 -289 -350 l-31 -81 -3 -1010 -2 -1009 -283 -286 c-345 -347 -397 -417 -442 -588 -20 -78 -20 -249 0 -327 44 -167 98 -239 437 -581 l288 -290 0 -985 c0 -949 1 -989 20 -1063 26 -103 72 -187 145 -264 84 -91 147 -130 430 -270 931 -462 1120 -545 1341 -588 132 -26 371 -24 486 4 103 25 191 60 260 102 28 17 51 30 52 28 2 -2 32 -59 68 -128 264 -511 627 -899 1023 -1097 193 -97 315 -134 500 -153 l100 -10 860 -859 c886 -885 918 -914 1052 -972 80 -34 172 -51 279 -50 168 1 295 52 452 183 37 31 421 411 852 844 l785 787 85 40 c47 21 240 119 430 218 373 193 456 248 614 399 48 47 118 121 154 165 36 44 69 84 73 88 3 5 29 1 55 -8 124 -42 293 -36 447 16 50 16 225 96 391 178 166 82 402 198 526 259 520 256 784 458 1083 829 322 400 538 891 622 1413 21 128 25 691 6 804 l-12 69 299 301 c358 360 411 432 453 614 19 82 13 248 -11 327 -53 169 -96 222 -536 665 -364 366 -382 386 -368 405 60 79 144 297 171 443 23 121 22 525 -1 672 -96 621 -515 1222 -1088 1562 -299 177 -603 277 -840 278 l-107 0 -30 44 c-50 72 -162 168 -257 219 -199 107 -596 295 -675 320 -91 29 -223 47 -279 40 -35 -5 -38 -2 -87 64 -55 74 -104 119 -193 175 -77 49 -716 354 -770 368 -25 6 -54 14 -65 17 -11 3 -407 391 -880 862 -877 874 -922 916 -1049 970 -108 47 -250 67 -362 51z"/>
 </g>
<g id="layer102" fill="#66ccba" stroke="none">
 <path d="M7244 14690 c-83 -12 -197 -57 -285 -115 -57 -37 -267 -241 -909 -881 l-835 -833 -131 -60 c-72 -32 -254 -121 -405 -197 -265 -133 -277 -140 -352 -214 l-79 -78 -83 -10 c-46 -6 -117 -22 -158 -36 -87 -29 -656 -302 -737 -354 -128 -81 -222 -188 -270 -307 l-22 -55 -67 6 c-144 14 -398 -36 -607 -118 -60 -23 -221 -98 -359 -166 -137 -69 -378 -186 -535 -262 -157 -75 -312 -154 -345 -174 -132 -85 -234 -208 -289 -350 l-31 -81 -3 -1010 -2 -1009 -283 -286 c-345 -347 -397 -417 -442 -588 -20 -78 -20 -249 0 -327 44 -167 98 -239 437 -581 l288 -290 0 -985 c0 -949 1 -989 20 -1063 26 -103 72 -187 145 -264 84 -91 147 -130 430 -270 931 -462 1120 -545 1341 -588 132 -26 371 -24 486 4 103 25 191 60 260 102 28 17 51 30 52 28 2 -2 32 -59 68 -128 264 -511 627 -899 1023 -1097 193 -97 315 -134 500 -153 l100 -10 860 -859 c886 -885 918 -914 1052 -972 80 -34 172 -51 279 -50 168 1 295 52 452 183 37 31 421 411 852 844 l785 787 85 40 c47 21 240 119 430 218 373 193 456 248 614 399 48 47 118 121 154 165 36 44 69 84 73 88 3 5 29 1 55 -8 124 -42 293 -36 447 16 50 16 225 96 391 178 166 82 402 198 526 259 520 256 784 458 1083 829 322 400 538 891 622 1413 21 128 25 691 6 804 l-12 69 299 301 c358 360 411 432 453 614 19 82 13 248 -11 327 -53 169 -96 222 -536 665 -364 366 -382 386 -368 405 60 79 144 297 171 443 23 121 22 525 -1 672 -96 621 -515 1222 -1088 1562 -299 177 -603 277 -840 278 l-107 0 -30 44 c-50 72 -162 168 -257 219 -199 107 -596 295 -675 320 -91 29 -223 47 -279 40 -35 -5 -38 -2 -87 64 -55 74 -104 119 -193 175 -77 49 -716 354 -770 368 -25 6 -54 14 -65 17 -11 3 -407 391 -880 862 -877 874 -922 916 -1049 970 -108 47 -250 67 -362 51z m246 -341 c59 -29 140 -107 921 -883 471 -468 883 -874 915 -902 50 -43 67 -52 111 -57 72 -8 153 -43 493 -211 333 -163 369 -190 424 -306 28 -60 30 -73 34 -209 l5 -145 18 50 c55 146 208 221 369 179 102 -26 702 -321 762 -374 58 -52 92 -107 111 -181 l14 -54 204 -1 c185 -1 213 -4 304 -28 277 -72 544 -211 776 -406 318 -266 574 -688 660 -1089 29 -137 37 -447 15 -589 -34 -222 -118 -389 -266 -527 l-52 -49 500 -501 c469 -469 503 -505 534 -571 28 -60 33 -81 33 -145 0 -64 -5 -85 -33 -145 -31 -65 -62 -98 -398 -435 l-364 -366 19 -89 c30 -138 41 -266 41 -475 0 -217 -11 -334 -46 -503 -82 -392 -242 -742 -491 -1076 -101 -135 -360 -399 -477 -486 -186 -138 -233 -163 -981 -530 -410 -202 -487 -235 -560 -242 -136 -14 -288 90 -311 214 -3 18 -10 33 -14 33 -4 0 -16 -19 -26 -42 -33 -74 -189 -299 -273 -396 -94 -106 -228 -221 -351 -301 -47 -30 -260 -141 -474 -247 l-390 -193 -850 -849 c-803 -801 -855 -850 -916 -877 -91 -41 -188 -40 -280 0 -62 27 -112 75 -985 946 l-920 917 -145 5 c-119 4 -161 9 -235 31 -519 154 -1010 719 -1300 1499 l-48 129 -40 -76 c-78 -150 -230 -279 -391 -333 -72 -24 -96 -27 -221 -27 -157 0 -246 17 -410 82 -89 35 -507 235 -1027 491 -306 151 -355 186 -404 293 l-29 63 -3 1050 -2 1050 -335 335 c-306 307 -336 341 -367 405 -28 60 -33 81 -33 145 0 64 5 85 33 145 31 64 61 98 367 405 l335 335 2 1050 c3 1168 -2 1087 71 1181 48 63 116 109 277 186 80 39 332 162 561 274 592 290 675 319 914 318 127 0 147 -2 219 -27 43 -15 98 -39 122 -53 l44 -26 0 105 c0 180 26 260 112 346 43 43 93 72 347 197 399 197 427 208 522 209 66 0 84 -4 137 -31 l61 -32 27 87 c24 76 34 93 83 141 49 48 91 72 321 186 146 72 326 157 400 189 l135 57 860 858 c575 573 876 867 909 886 110 63 214 67 326 13z"/>
 <path d="M7143 13124 l-193 -93 0 -560 0 -559 -127 -51 c-71 -27 -209 -82 -308 -120 -98 -39 -183 -71 -187 -71 -4 0 -9 236 -10 525 l-3 524 -305 -149 c-168 -82 -318 -156 -334 -164 l-28 -16 5 -1493 c5 -1491 7 -1592 43 -1912 58 -519 196 -980 379 -1262 33 -50 97 -127 149 -179 76 -75 108 -99 177 -132 132 -63 234 -77 352 -46 151 39 280 140 396 311 209 308 374 897 435 1558 33 346 36 543 36 2191 l0 1661 -136 64 c-75 35 -139 65 -143 66 -3 0 -93 -41 -198 -93z m-193 -2986 c0 -651 -36 -941 -141 -1150 -56 -111 -114 -158 -195 -158 -131 0 -218 152 -270 470 -13 84 -18 196 -21 567 l-5 462 24 6 c12 3 151 41 308 84 157 44 288 79 293 80 4 1 7 -162 7 -361z"/>
 <path d="M7872 12262 l3 -697 140 -51 140 -52 3 -1314 2 -1314 -127 17 c-71 10 -136 18 -145 19 -17 0 -18 -40 -18 -694 l0 -694 63 -6 c34 -3 320 -7 635 -10 l572 -4 -2 621 -3 622 -147 19 -148 19 0 1233 0 1233 113 -40 c61 -23 129 -47 150 -55 l37 -13 -2 621 -3 621 -580 284 c-319 157 -604 295 -633 308 l-52 24 2 -697z"/>
 <path d="M5101 12124 l-355 -173 -58 -223 c-69 -264 -239 -887 -265 -973 l-19 -60 -84 -31 -85 -32 -6 197 c-4 108 -7 346 -8 529 0 192 -5 332 -10 330 -5 -1 -156 -75 -335 -162 l-326 -160 0 -1963 0 -1963 173 1 c94 0 336 4 537 8 360 8 366 8 447 35 395 129 644 647 704 1461 15 206 6 666 -15 835 -50 382 -143 648 -288 821 l-61 72 73 271 c97 362 341 1337 338 1346 -2 4 -163 -70 -357 -166z m-461 -2560 c44 -47 75 -126 91 -227 15 -94 5 -381 -15 -463 -34 -136 -91 -226 -169 -263 -37 -17 -230 -51 -294 -51 l-23 0 0 495 0 494 38 10 c153 41 203 50 266 48 65 -3 70 -4 106 -43z"/>
 <path d="M9410 9834 l0 -2374 108 0 c59 0 205 -3 324 -7 l218 -6 3 234 c1 139 6 225 11 212 30 -81 100 -222 140 -281 166 -250 391 -323 628 -205 232 116 404 458 477 948 44 294 46 350 46 1654 l0 1243 -335 164 -335 164 -5 -1327 c-6 -1315 -6 -1329 -28 -1423 -26 -117 -83 -232 -134 -273 -43 -35 -115 -46 -171 -28 -84 28 -176 174 -221 351 -48 192 -49 213 -55 1649 l-6 1354 -332 163 -333 162 0 -2374z"/>
 <path d="M11740 10949 c-30 -5 -87 -25 -126 -44 l-72 -35 20 -93 c67 -316 189 -865 196 -880 6 -16 10 -15 43 7 100 68 274 112 404 103 104 -8 182 -30 280 -77 102 -49 160 -106 181 -176 28 -98 -7 -172 -92 -193 -25 -7 -110 -16 -187 -22 -245 -17 -376 -40 -465 -82 -97 -45 -224 -196 -273 -325 -75 -200 -95 -591 -44 -887 34 -199 108 -396 199 -534 55 -82 181 -203 259 -250 264 -156 653 -145 1002 29 66 33 136 73 155 89 l34 29 -91 338 c-51 187 -95 351 -99 367 -3 15 -10 27 -15 27 -5 0 -49 -20 -97 -44 -151 -76 -238 -99 -377 -100 -146 -1 -206 16 -270 78 -88 84 -88 241 -1 295 44 28 121 46 294 71 192 28 356 70 432 111 78 42 187 150 228 228 48 89 72 196 79 346 18 436 -174 875 -529 1210 -207 195 -470 341 -713 396 -104 23 -275 32 -355 18z"/>
 <path d="M2685 10921 c-111 -34 -148 -51 -747 -343 l-598 -292 0 -1433 0 -1433 383 1 c508 0 834 13 912 34 294 82 475 299 551 660 24 112 27 492 6 590 -42 189 -100 314 -190 403 l-63 63 63 68 c137 148 243 395 283 658 21 133 24 446 6 553 -42 253 -141 415 -286 469 -73 27 -232 28 -320 2z m-114 -917 c77 -70 77 -279 1 -404 -51 -84 -84 -98 -554 -236 -17 -5 -18 11 -18 244 0 229 1 250 18 257 64 25 411 154 427 158 37 10 105 0 126 -19z m-113 -1314 c50 -31 72 -88 72 -191 0 -136 -39 -217 -122 -258 -38 -18 -309 -61 -385 -61 l-23 0 0 234 0 234 153 30 c185 37 259 40 305 12z"/>
 <path d="M4705 7335 c-296 -64 -558 -294 -758 -665 -291 -541 -381 -1352 -237 -2145 95 -522 321 -1064 603 -1445 95 -128 269 -305 375 -380 561 -400 1000 -158 1237 683 58 204 96 422 127 727 18 171 17 924 0 1125 -87 982 -378 1718 -788 1990 -162 108 -377 150 -559 110z m247 -1258 c59 -34 136 -118 186 -202 75 -126 149 -388 184 -645 17 -131 17 -615 -1 -745 -60 -443 -204 -682 -399 -662 -76 8 -138 42 -209 113 -137 139 -247 399 -304 719 -21 117 -24 161 -24 430 0 316 5 366 51 543 62 240 161 398 287 458 69 33 164 30 229 -9z"/>
 <path d="M1340 5853 l0 -1434 388 -191 c990 -486 979 -481 1177 -482 118 -1 134 1 180 24 68 33 146 114 185 190 18 35 44 107 58 159 24 90 26 110 26 321 -1 194 -4 239 -22 324 -45 202 -120 379 -214 504 -27 35 -48 65 -48 67 0 2 21 13 48 26 115 55 241 226 291 395 50 171 67 486 36 699 -61 428 -270 692 -621 784 -104 28 -349 39 -991 44 l-493 4 0 -1434z m999 632 c225 -28 268 -41 319 -99 55 -63 66 -99 66 -221 1 -127 -15 -174 -73 -212 -50 -34 -130 -29 -376 20 l-210 43 -3 253 -2 253 37 -6 c21 -3 130 -17 242 -31z m-95 -1241 c99 -31 201 -66 226 -79 94 -47 148 -140 157 -265 9 -126 -26 -204 -97 -219 -49 -10 -117 8 -310 81 l-165 63 -3 238 c-1 130 1 237 4 237 4 0 88 -25 188 -56z"/>
 <path d="M11183 7263 l-123 -4 0 -1974 c0 -1086 4 -1975 8 -1975 18 0 1121 544 1198 591 424 256 789 730 964 1251 139 412 146 934 18 1297 -85 241 -236 454 -421 592 -108 80 -278 163 -402 196 l-100 27 -510 1 c-280 1 -565 0 -632 -2z m1140 -937 c118 -57 213 -188 251 -346 58 -243 40 -571 -44 -789 -66 -171 -198 -342 -321 -417 -45 -27 -391 -164 -415 -164 -2 0 -4 384 -4 854 l0 855 43 6 c23 4 83 12 132 20 50 7 137 13 195 12 94 -2 111 -5 163 -31z"/>
 <path d="M10234 7253 l-171 -3 -71 -223 c-39 -122 -121 -381 -181 -576 -61 -195 -115 -357 -122 -361 -6 -4 -43 -11 -83 -14 -39 -4 -79 -9 -88 -12 -17 -5 -18 27 -18 585 l0 591 -362 -2 -363 -3 -3 -2522 c-1 -1388 2 -2523 6 -2523 24 0 1106 538 1177 586 444 295 760 925 826 1644 17 187 6 583 -20 735 -56 324 -159 555 -329 737 l-45 48 171 502 c94 277 195 574 226 661 l55 157 -217 -2 c-119 -1 -294 -4 -388 -5z m-328 -2332 c110 -50 163 -225 151 -496 -10 -219 -62 -375 -158 -475 -56 -59 -77 -69 -256 -135 l-143 -53 0 552 0 552 148 36 c169 42 202 45 258 19z"/>
 <path d="M6320 5708 c0 -1508 4 -1735 35 -2058 92 -941 374 -1726 760 -2116 115 -115 205 -178 244 -169 44 10 177 102 259 179 408 386 687 1152 794 2172 21 204 22 247 25 1862 l4 1652 -360 0 -361 0 -2 -562 -3 -563 -185 -19 c-164 -17 -199 -18 -320 -7 -74 7 -145 15 -157 18 l-23 5 0 564 0 564 -355 0 -355 0 0 -1522z m1397 -1455 c-4 -277 -12 -488 -21 -574 -46 -422 -169 -704 -326 -749 -28 -8 -35 -5 -72 28 -146 131 -232 427 -258 887 -15 259 -13 825 3 825 6 0 76 -14 155 -32 l143 -32 177 41 c97 22 183 41 191 42 12 1 13 -64 8 -436z"/>
 </g>
<g id="layer103" fill="#ffffff" stroke="none">
 <path d="M7244 14690 c-83 -12 -197 -57 -285 -115 -57 -37 -267 -241 -909 -881 l-835 -833 -131 -60 c-72 -32 -254 -121 -405 -197 -265 -133 -277 -140 -352 -214 l-79 -78 -83 -10 c-46 -6 -117 -22 -158 -36 -87 -29 -656 -302 -737 -354 -128 -81 -222 -188 -270 -307 l-22 -55 -67 6 c-144 14 -398 -36 -607 -118 -60 -23 -221 -98 -359 -166 -137 -69 -378 -186 -535 -262 -157 -75 -312 -154 -345 -174 -132 -85 -234 -208 -289 -350 l-31 -81 -3 -1010 -2 -1009 -283 -286 c-345 -347 -397 -417 -442 -588 -20 -78 -20 -249 0 -327 44 -167 98 -239 437 -581 l288 -290 0 -985 c0 -949 1 -989 20 -1063 26 -103 72 -187 145 -264 84 -91 147 -130 430 -270 931 -462 1120 -545 1341 -588 132 -26 371 -24 486 4 103 25 191 60 260 102 28 17 51 30 52 28 2 -2 32 -59 68 -128 264 -511 627 -899 1023 -1097 193 -97 315 -134 500 -153 l100 -10 860 -859 c886 -885 918 -914 1052 -972 80 -34 172 -51 279 -50 168 1 295 52 452 183 37 31 421 411 852 844 l785 787 85 40 c47 21 240 119 430 218 373 193 456 248 614 399 48 47 118 121 154 165 36 44 69 84 73 88 3 5 29 1 55 -8 124 -42 293 -36 447 16 50 16 225 96 391 178 166 82 402 198 526 259 520 256 784 458 1083 829 322 400 538 891 622 1413 21 128 25 691 6 804 l-12 69 299 301 c358 360 411 432 453 614 19 82 13 248 -11 327 -53 169 -96 222 -536 665 -364 366 -382 386 -368 405 60 79 144 297 171 443 23 121 22 525 -1 672 -96 621 -515 1222 -1088 1562 -299 177 -603 277 -840 278 l-107 0 -30 44 c-50 72 -162 168 -257 219 -199 107 -596 295 -675 320 -91 29 -223 47 -279 40 -35 -5 -38 -2 -87 64 -55 74 -104 119 -193 175 -77 49 -716 354 -770 368 -25 6 -54 14 -65 17 -11 3 -407 391 -880 862 -877 874 -922 916 -1049 970 -108 47 -250 67 -362 51z m246 -341 c59 -29 140 -107 921 -883 471 -468 883 -874 915 -902 50 -43 67 -52 111 -57 72 -8 153 -43 493 -211 333 -163 369 -190 424 -306 28 -60 30 -73 34 -209 l5 -145 18 50 c55 146 208 221 369 179 102 -26 702 -321 762 -374 58 -52 92 -107 111 -181 l14 -54 204 -1 c185 -1 213 -4 304 -28 277 -72 544 -211 776 -406 318 -266 574 -688 660 -1089 29 -137 37 -447 15 -589 -34 -222 -118 -389 -266 -527 l-52 -49 500 -501 c469 -469 503 -505 534 -571 28 -60 33 -81 33 -145 0 -64 -5 -85 -33 -145 -31 -65 -62 -98 -398 -435 l-364 -366 19 -89 c30 -138 41 -266 41 -475 0 -217 -11 -334 -46 -503 -82 -392 -242 -742 -491 -1076 -101 -135 -360 -399 -477 -486 -186 -138 -233 -163 -981 -530 -410 -202 -487 -235 -560 -242 -136 -14 -288 90 -311 214 -3 18 -10 33 -14 33 -4 0 -16 -19 -26 -42 -33 -74 -189 -299 -273 -396 -94 -106 -228 -221 -351 -301 -47 -30 -260 -141 -474 -247 l-390 -193 -850 -849 c-803 -801 -855 -850 -916 -877 -91 -41 -188 -40 -280 0 -62 27 -112 75 -985 946 l-920 917 -145 5 c-119 4 -161 9 -235 31 -519 154 -1010 719 -1300 1499 l-48 129 -40 -76 c-78 -150 -230 -279 -391 -333 -72 -24 -96 -27 -221 -27 -157 0 -246 17 -410 82 -89 35 -507 235 -1027 491 -306 151 -355 186 -404 293 l-29 63 -3 1050 -2 1050 -335 335 c-306 307 -336 341 -367 405 -28 60 -33 81 -33 145 0 64 5 85 33 145 31 64 61 98 367 405 l335 335 2 1050 c3 1168 -2 1087 71 1181 48 63 116 109 277 186 80 39 332 162 561 274 592 290 675 319 914 318 127 0 147 -2 219 -27 43 -15 98 -39 122 -53 l44 -26 0 105 c0 180 26 260 112 346 43 43 93 72 347 197 399 197 427 208 522 209 66 0 84 -4 137 -31 l61 -32 27 87 c24 76 34 93 83 141 49 48 91 72 321 186 146 72 326 157 400 189 l135 57 860 858 c575 573 876 867 909 886 110 63 214 67 326 13z"/>
 </g>

</svg>