<!DOCTYPE svg PUBLIC "-//W3C//DTD SVG 20010904//EN" "http://www.w3.org/TR/2001/REC-SVG-20010904/DTD/svg10.dtd">
<svg version="1.0" xmlns="http://www.w3.org/2000/svg" width="731px" height="846px" viewBox="0 0 7310 8460" preserveAspectRatio="xMidYMid meet">
<g id="layer101" fill="#000101" stroke="none">
 <path d="M2925 8452 c-82 -4 -175 -21 -255 -48 -225 -73 -445 -284 -531 -509 -46 -117 -60 -203 -60 -347 l0 -127 -135 -71 c-344 -181 -614 -379 -879 -644 -554 -555 -891 -1216 -1031 -2026 -25 -142 -27 -183 -31 -485 -4 -257 -1 -364 11 -483 86 -818 438 -1574 1002 -2152 l83 -85 10 -155 c6 -85 10 -231 9 -325 -1 -180 7 -248 48 -375 59 -187 222 -379 414 -488 81 -45 222 -90 325 -101 318 -37 637 -35 1025 5 569 59 1111 222 1560 469 77 43 164 80 265 113 230 76 353 127 560 232 223 112 348 189 527 322 676 506 1163 1235 1357 2031 70 284 95 478 106 812 24 679 -167 1410 -519 1989 l-48 78 11 87 c48 376 -62 777 -300 1094 -464 619 -1353 1010 -2604 1146 -276 30 -746 52 -920 43z"/>
 </g>
<g id="layer102" fill="#3f02bf" stroke="none">
 <path d="M2925 8452 c-82 -4 -175 -21 -255 -48 -225 -73 -445 -284 -531 -509 -46 -117 -60 -203 -60 -347 l0 -127 -135 -71 c-344 -181 -614 -379 -879 -644 -554 -555 -891 -1216 -1031 -2026 -25 -142 -27 -183 -31 -485 -4 -257 -1 -364 11 -483 86 -818 438 -1574 1002 -2152 l83 -85 10 -155 c6 -85 10 -231 9 -325 -1 -180 7 -248 48 -375 59 -187 222 -379 414 -488 81 -45 222 -90 325 -101 318 -37 637 -35 1025 5 569 59 1111 222 1560 469 77 43 164 80 265 113 230 76 353 127 560 232 223 112 348 189 527 322 676 506 1163 1235 1357 2031 70 284 95 478 106 812 24 679 -167 1410 -519 1989 l-48 78 11 87 c48 376 -62 777 -300 1094 -464 619 -1353 1010 -2604 1146 -276 30 -746 52 -920 43z m610 -628 c1058 -77 1875 -358 2307 -796 407 -412 409 -939 5 -1324 -176 -168 -380 -286 -686 -394 l-103 -37 83 -48 c409 -235 688 -538 807 -875 45 -128 64 -240 65 -370 0 -307 -112 -563 -346 -795 -105 -104 -267 -226 -304 -229 -13 -1 -19 16 -29 74 -25 142 -109 387 -160 468 -15 22 -13 26 58 95 41 40 88 94 106 121 112 172 105 362 -19 574 -51 86 -236 265 -356 345 -213 141 -497 258 -816 337 -146 37 -424 85 -527 92 l-45 3 2 -35 c2 -19 9 -136 18 -260 37 -549 45 -1010 24 -1341 -6 -94 -8 -173 -6 -176 3 -2 83 -9 179 -15 190 -12 463 0 638 27 52 8 113 18 135 21 l41 6 46 -98 c71 -150 108 -297 108 -429 0 -43 -1 -45 -37 -54 -234 -61 -764 -90 -1120 -60 -221 18 -421 47 -467 68 -56 24 -123 91 -147 147 -31 69 -34 128 -11 234 41 192 47 294 47 775 -1 465 -20 872 -61 1290 -8 83 -19 202 -24 265 -31 394 -137 1285 -221 1850 -36 240 -39 282 -30 329 23 115 112 204 236 235 32 8 390 -4 610 -20z"/>
 <path d="M3330 7234 c0 -5 9 -72 20 -148 33 -225 107 -831 135 -1096 14 -135 28 -260 31 -277 l5 -33 72 0 c252 0 650 34 892 75 625 106 1064 354 1065 600 0 115 -130 281 -315 404 -339 224 -909 390 -1560 455 -227 23 -345 29 -345 20z"/>
 </g>
<g id="layer103" fill="#40c3ff" stroke="none">
 <path d="M2925 8452 c-82 -4 -175 -21 -255 -48 -225 -73 -445 -284 -531 -509 -46 -117 -60 -203 -60 -347 l0 -127 -135 -71 c-344 -181 -614 -379 -879 -644 -554 -555 -891 -1216 -1031 -2026 -25 -142 -27 -183 -31 -485 -4 -257 -1 -364 11 -483 86 -818 438 -1574 1002 -2152 l83 -85 10 -155 c6 -85 10 -231 9 -325 -1 -180 7 -248 48 -375 59 -187 222 -379 414 -488 81 -45 222 -90 325 -101 318 -37 637 -35 1025 5 569 59 1111 222 1560 469 77 43 164 80 265 113 230 76 353 127 560 232 223 112 348 189 527 322 676 506 1163 1235 1357 2031 70 284 95 478 106 812 24 679 -167 1410 -519 1989 l-48 78 11 87 c48 376 -62 777 -300 1094 -464 619 -1353 1010 -2604 1146 -276 30 -746 52 -920 43z m400 -612 c477 -25 838 -74 1212 -165 829 -201 1376 -562 1558 -1026 134 -341 19 -729 -294 -993 -181 -151 -433 -284 -698 -368 l-43 -13 113 -67 c62 -36 159 -100 215 -142 815 -607 842 -1540 60 -2064 l-98 -65 6 -116 c20 -377 -114 -775 -377 -1123 -91 -120 -316 -341 -449 -440 -398 -296 -898 -498 -1458 -589 -259 -41 -754 -62 -1008 -41 -141 11 -192 30 -254 92 -78 78 -82 98 -85 394 -2 144 -8 333 -14 421 -31 431 -97 1167 -186 2073 -99 1005 -111 1154 -97 1219 23 113 101 198 210 229 53 16 70 16 250 0 364 -31 829 -102 1065 -161 27 -7 27 -7 27 41 -1 27 -7 119 -15 204 -8 85 -20 209 -25 275 -35 427 -141 1306 -227 1889 -33 222 -35 255 -25 305 22 106 93 187 194 222 63 22 162 24 443 9z"/>
 <path d="M3334 7213 c18 -87 119 -888 156 -1243 11 -107 23 -214 26 -237 l5 -43 172 0 c630 0 1247 128 1582 327 105 63 217 169 251 239 49 101 17 213 -96 337 -217 236 -667 433 -1250 546 -223 43 -412 67 -774 96 l-78 7 6 -29z"/>
 <path d="M3585 4943 c4 -65 10 -144 14 -177 l6 -58 165 -67 c614 -249 1084 -610 1339 -1031 l49 -81 49 43 c291 256 276 581 -42 894 -236 232 -606 409 -1084 518 -119 28 -420 76 -470 76 l-33 0 7 -117z"/>
 <path d="M2050 4424 c0 -8 34 -360 75 -782 135 -1397 195 -2110 195 -2339 0 -66 3 -85 16 -90 21 -8 395 15 534 33 527 68 986 247 1335 519 167 130 350 347 435 514 46 93 90 230 105 330 8 52 13 97 10 99 -2 2 -55 -5 -117 -17 -402 -75 -933 -75 -1408 0 -111 17 -191 74 -242 172 -29 56 -30 155 -1 307 32 169 46 439 41 780 -2 165 -7 302 -11 306 -25 26 -546 129 -827 164 -47 6 -97 13 -112 15 -20 3 -28 0 -28 -11z"/>
 <path d="M3630 3787 c0 -144 -5 -322 -10 -396 -6 -74 -8 -136 -5 -140 12 -12 544 -13 661 -2 168 17 314 42 314 55 0 23 -132 185 -221 271 -113 109 -227 197 -365 281 -95 58 -294 163 -350 185 l-24 9 0 -263z"/>
 </g>
<g id="layer104" fill="#feffff" stroke="none">
 <path d="M2925 8452 c-82 -4 -175 -21 -255 -48 -225 -73 -445 -284 -531 -509 -46 -117 -60 -203 -60 -347 l0 -127 -135 -71 c-344 -181 -614 -379 -879 -644 -554 -555 -891 -1216 -1031 -2026 -25 -142 -27 -183 -31 -485 -4 -257 -1 -364 11 -483 86 -818 438 -1574 1002 -2152 l83 -85 10 -155 c6 -85 10 -231 9 -325 -1 -180 7 -248 48 -375 59 -187 222 -379 414 -488 81 -45 222 -90 325 -101 318 -37 637 -35 1025 5 569 59 1111 222 1560 469 77 43 164 80 265 113 230 76 353 127 560 232 223 112 348 189 527 322 676 506 1163 1235 1357 2031 70 284 95 478 106 812 24 679 -167 1410 -519 1989 l-48 78 11 87 c48 376 -62 777 -300 1094 -464 619 -1353 1010 -2604 1146 -276 30 -746 52 -920 43z m441 -612 c833 -48 1501 -203 1994 -461 433 -227 706 -530 776 -862 32 -149 6 -374 -57 -498 l-18 -36 60 -84 c302 -422 492 -911 561 -1449 19 -156 16 -581 -6 -740 -82 -592 -310 -1107 -689 -1560 -275 -329 -589 -576 -972 -765 -204 -101 -306 -141 -513 -204 -102 -30 -158 -55 -245 -105 -424 -246 -913 -392 -1497 -447 -151 -14 -610 -14 -737 0 -136 15 -212 61 -268 163 l-29 53 -2 240 c-2 220 -15 500 -30 635 -6 52 -9 57 -66 105 -91 77 -277 271 -367 385 -431 540 -661 1210 -661 1922 0 127 21 357 46 502 145 848 657 1608 1389 2065 185 115 455 242 643 302 45 14 72 28 72 37 0 8 -16 121 -36 251 -23 152 -34 256 -31 292 10 120 96 223 217 260 37 11 263 10 466 -1z"/>
 <path d="M3337 7202 c2 -20 6 -42 8 -47 2 -7 28 -8 76 -4 199 20 538 2 779 -41 400 -72 787 -227 1130 -452 l105 -69 -55 52 c-77 73 -228 170 -372 238 -401 191 -936 309 -1605 355 l-72 5 6 -37z"/>
 <path d="M2320 1313 c0 -98 -9 -93 168 -93 86 0 152 4 147 8 -6 5 -39 19 -75 32 -36 13 -103 41 -149 62 -46 21 -85 38 -87 38 -2 0 -4 -21 -4 -47z"/>
 </g>

</svg>